<?xml version="1.0" encoding="UTF-8" standalone="no"?>
<!DOCTYPE svg PUBLIC "-//W3C//DTD SVG 1.1//EN" "http://www.w3.org/Graphics/SVG/1.1/DTD/svg11.dtd">
<svg width="100%" height="100%" viewBox="0 0 136 133" version="1.1" xmlns="http://www.w3.org/2000/svg" xmlns:xlink="http://www.w3.org/1999/xlink" xml:space="preserve" xmlns:serif="http://www.serif.com/" style="fill-rule:evenodd;clip-rule:evenodd;stroke-linejoin:round;stroke-miterlimit:2;">
    <style>
    path { fill: black; }
    @media (prefers-color-scheme: dark) {
      path { fill: white; }
    }
    </style>
    <path d="M67.873,3.777C103.195,3.777 131.873,32.504 131.873,67.889C131.873,103.273 103.195,132 67.873,132C32.55,132 3.873,103.273 3.873,67.889C3.873,32.504 32.55,3.777 67.873,3.777ZM53.477,90.237L78.791,90.237L78.791,112.566L53.477,112.566L53.477,90.237ZM77.92,83.955L54.285,83.955L54.285,81.591C54.285,77.569 54.742,74.304 55.654,71.795C56.566,69.286 57.924,66.996 59.728,64.922C61.531,62.849 65.585,59.2 71.887,53.976C75.246,51.239 76.925,48.73 76.925,46.45C76.925,44.169 76.252,42.396 74.904,41.132C73.556,39.867 71.514,39.235 68.777,39.235C65.833,39.235 63.397,40.209 61.469,42.158C59.541,44.107 58.308,47.507 57.769,52.358L33.636,49.373C34.465,40.499 37.689,33.357 43.308,27.946C48.926,22.535 57.54,19.829 69.151,19.829C78.19,19.829 85.488,21.716 91.044,25.489C98.591,30.589 102.364,37.39 102.364,45.89C102.364,49.414 101.39,52.815 99.441,56.09C97.492,59.366 93.511,63.367 87.499,68.094C83.311,71.412 80.668,74.076 79.569,76.087C78.47,78.098 77.92,80.72 77.92,83.955Z"/>
</svg>
